<svg width="64" height="64" viewBox="0 0 64 64" fill="none" xmlns="http://www.w3.org/2000/svg">
  <!-- Balanced SCF monogram with slimmer C and a standard rounded S. -->
  <path
    d="M21.5 23.6C20.4 22.5 18.9 22 17.2 22C14.2 22 11.8 24.1 11.8 26.7C11.8 29.2 13.9 30.9 16.8 30.9H18.1C20.7 30.9 22.7 32.6 22.7 35C22.7 37.7 20.3 39.8 17.2 39.8C15.4 39.8 13.8 39.2 12.6 38"
    transform="rotate(5 17.25 30.9)"
    stroke="#86EDFF"
    stroke-width="4.5"
    stroke-linecap="round"
    stroke-linejoin="round"
  />
  <path
    d="M39.1 24.6C37.8 23 35.8 22 33.5 22C28.9 22 25.3 25.7 25.3 30.4C25.3 35.1 28.9 38.8 33.5 38.8C35.8 38.8 37.8 37.8 39.1 36.2"
    stroke="#4FD6FF"
    stroke-width="4.5"
    stroke-linecap="round"
    stroke-linejoin="round"
  />
  <path
    d="M43.3 22V39"
    stroke="#1FA4FF"
    stroke-width="4.5"
    stroke-linecap="round"
  />
  <path
    d="M43.3 22H51.5"
    stroke="#1FA4FF"
    stroke-width="4.5"
    stroke-linecap="round"
  />
  <path
    d="M43.3 30.5H49.6"
    stroke="#1FA4FF"
    stroke-width="4.5"
    stroke-linecap="round"
  />
</svg>
